<svg xmlns="http://www.w3.org/2000/svg" height="48" width="48" fill="context-fill" fill-opacity="context-fill-opacity">
  <path
    d="M24 34.45q-4.3 0-7.375-3.075T13.55 24q0-4.25 3.075-7.375T24 13.5q4.25 0 7.375 3.1T34.5 24q0 4.3-3.1 7.375T24 34.45Zm0-4.55q2.5 0 4.2-1.7 1.7-1.7 1.7-4.2t-1.7-4.2q-1.7-1.7-4.2-1.7t-4.2 1.7q-1.7 1.7-1.7 4.2t1.7 4.2q1.7 1.7 4.2 1.7ZM9.5 43.05q-1.85 0-3.2-1.35t-1.35-3.2v-8.1H9.5v8.1h8.1v4.55Zm20.9 0V38.5h8.1v-8.1h4.6v8.1q0 1.85-1.35 3.2t-3.25 1.35ZM4.95 17.6V9.5q0-1.9 1.35-3.25T9.5 4.9h8.1v4.6H9.5v8.1Zm33.55 0V9.5h-8.1V4.9h8.1q1.9 0 3.25 1.35T43.1 9.5v8.1ZM24 24Z" />
</svg>
