<?xml version="1.0" encoding="UTF-8" standalone="no"?>
<!DOCTYPE svg PUBLIC "-//W3C//DTD SVG 1.1//EN" "http://www.w3.org/Graphics/SVG/1.1/DTD/svg11.dtd">
<svg version="1.1" xmlns="http://www.w3.org/2000/svg" xmlns:xlink="http://www.w3.org/1999/xlink" preserveAspectRatio="xMidYMid meet" viewBox="0 0 250 250" width="250" height="250"><defs><path d="M250 125C250 193.99 193.99 250 125 250C56.01 250 0 193.99 0 125C0 56.01 56.01 0 125 0C193.99 0 250 56.01 250 125Z" id="bqah48Iq0"></path><path d="M141.25 127.38C171.88 96.76 188.89 79.75 192.29 76.34C195.99 72.51 195.89 66.41 192.06 62.71C188.32 59.1 182.4 59.1 178.66 62.71C175.26 66.11 158.24 83.13 127.62 113.75C97 83.13 79.98 66.11 76.58 62.71C72.75 59.01 66.64 59.12 62.94 62.95C59.34 66.68 59.34 72.61 62.94 76.34C66.35 79.75 83.36 96.76 113.98 127.38C83.36 158.01 66.35 175.02 62.94 178.42C59.11 182.12 59.01 188.23 62.71 192.06C66.41 195.89 72.51 196 76.34 192.3C76.42 192.22 76.5 192.14 76.58 192.06C79.98 188.66 97 171.64 127.62 141.02C158.24 171.64 175.26 188.66 178.66 192.06C182.49 195.76 188.59 195.65 192.29 191.82C195.9 188.09 195.9 182.16 192.29 178.42C185.49 171.62 168.48 154.61 141.25 127.38Z" id="b1U4xYzOJp"></path></defs><g><g><g><use xlink:href="#bqah48Iq0" opacity="1" fill="#f25056" fill-opacity="1"></use><g><filter id="shadow15742616" x="-12" y="-12" width="274" height="274" filterUnits="userSpaceOnUse" primitiveUnits="userSpaceOnUse"><feFlood></feFlood><feComposite in2="SourceAlpha" operator="out"></feComposite><feGaussianBlur stdDeviation="1.41"></feGaussianBlur><feOffset dx="0" dy="0" result="afterOffset"></feOffset><feFlood flood-color="#cb1c3c" flood-opacity="0.8"></feFlood><feComposite in2="afterOffset" operator="in"></feComposite><feMorphology operator="dilate" radius="3"></feMorphology><feComposite in2="SourceAlpha" operator="in"></feComposite></filter><path d="M250 125C250 193.99 193.99 250 125 250C56.01 250 0 193.99 0 125C0 56.01 56.01 0 125 0C193.99 0 250 56.01 250 125Z" id="b36ptMaqe" fill="white" fill-opacity="1" filter="url(#shadow15742616)"></path></g></g><g><use xlink:href="#b1U4xYzOJp" opacity="1" fill="#951d2b" fill-opacity="1"></use><g><use xlink:href="#b1U4xYzOJp" opacity="1" fill-opacity="0" stroke="#000000" stroke-width="0" stroke-opacity="0"></use></g></g></g></g></svg>