<?xml version="1.0" encoding="UTF-8" standalone="no"?>
<!DOCTYPE svg PUBLIC "-//W3C//DTD SVG 1.1//EN" "http://www.w3.org/Graphics/SVG/1.1/DTD/svg11.dtd">
<svg version="1.1" xmlns="http://www.w3.org/2000/svg" xmlns:xlink="http://www.w3.org/1999/xlink" preserveAspectRatio="xMidYMid meet" viewBox="0 0 250 250" width="250" height="250"><defs><path d="M250 125C250 193.99 193.99 250 125 250C56.01 250 0 193.99 0 125C0 56.01 56.01 0 125 0C193.99 0 250 56.01 250 125Z" id="a3zJ0BpAM4"></path><linearGradient id="gradientc6qHg4I8hR" gradientUnits="userSpaceOnUse" x1="0" y1="125" x2="246.65" y2="125"><stop style="stop-color: #ff4361;stop-opacity: 1" offset="0%"></stop><stop style="stop-color: #ff4b2b;stop-opacity: 1" offset="100%"></stop></linearGradient></defs><g><g><g><use xlink:href="#a3zJ0BpAM4" opacity="1" fill="url(#gradientc6qHg4I8hR)"></use><g><filter id="shadow4971805" x="-12" y="-12" width="274" height="274" filterUnits="userSpaceOnUse" primitiveUnits="userSpaceOnUse"><feFlood></feFlood><feComposite in2="SourceAlpha" operator="out"></feComposite><feGaussianBlur stdDeviation="1.41"></feGaussianBlur><feOffset dx="0" dy="0" result="afterOffset"></feOffset><feFlood flood-color="#cb1b3b" flood-opacity="0.8"></feFlood><feComposite in2="afterOffset" operator="in"></feComposite><feMorphology operator="dilate" radius="3"></feMorphology><feComposite in2="SourceAlpha" operator="in"></feComposite></filter><path d="M250 125C250 193.99 193.99 250 125 250C56.01 250 0 193.99 0 125C0 56.01 56.01 0 125 0C193.99 0 250 56.01 250 125Z" id="aTLCalwgZ" fill="white" fill-opacity="1" filter="url(#shadow4971805)"></path></g></g></g></g></svg>