<?xml version="1.0" encoding="UTF-8" standalone="no"?>
<!DOCTYPE svg PUBLIC "-//W3C//DTD SVG 1.1//EN" "http://www.w3.org/Graphics/SVG/1.1/DTD/svg11.dtd">
<svg version="1.1" xmlns="http://www.w3.org/2000/svg" xmlns:xlink="http://www.w3.org/1999/xlink" preserveAspectRatio="xMidYMid meet" viewBox="0 0 250 250" width="250" height="250"><defs><path d="M250 125C250 193.99 193.99 250 125 250C56.01 250 0 193.99 0 125C0 56.01 56.01 0 125 0C193.99 0 250 56.01 250 125Z" id="b1F47x7Zmw"></path><linearGradient id="gradientaCrOe7R9Q" gradientUnits="userSpaceOnUse" x1="0" y1="125" x2="246.65" y2="125"><stop style="stop-color: #ce00de;stop-opacity: 1" offset="0%"></stop><stop style="stop-color: #8f00fb;stop-opacity: 1" offset="100%"></stop></linearGradient><path d="M54.69 179.34C54.69 188.18 61.82 195.31 70.65 195.31C76.52 195.31 123.44 195.31 129.3 195.31C143.57 195.31 150.7 177.98 140.63 167.9C134.76 162.03 87.84 115.1 81.97 109.23C71.9 99.15 54.69 106.4 54.69 120.67C54.69 132.4 54.69 173.47 54.69 179.34Z" id="a7EYTHzNq"></path><path d="M195.3 70.66C195.3 61.82 188.17 54.69 179.33 54.69C173.47 54.69 126.55 54.7 120.68 54.7C106.42 54.7 99.29 72.03 109.37 82.11C115.23 87.98 162.16 134.91 168.03 140.77C178.11 150.85 195.31 143.6 195.31 129.33C195.31 117.59 195.3 76.52 195.3 70.66Z" id="eBimBZG6L"></path></defs><g><g><g><use xlink:href="#b1F47x7Zmw" opacity="1" fill="url(#gradientaCrOe7R9Q)"></use><g><filter id="shadow2524659" x="-13" y="-13" width="276" height="277" filterUnits="userSpaceOnUse" primitiveUnits="userSpaceOnUse"><feFlood></feFlood><feComposite in2="SourceAlpha" operator="out"></feComposite><feGaussianBlur stdDeviation="1.41"></feGaussianBlur><feOffset dx="0" dy="1" result="afterOffset"></feOffset><feFlood flood-color="#9d03cd" flood-opacity="0.8"></feFlood><feComposite in2="afterOffset" operator="in"></feComposite><feMorphology operator="dilate" radius="3"></feMorphology><feComposite in2="SourceAlpha" operator="in"></feComposite></filter><path d="M250 125C250 193.99 193.99 250 125 250C56.01 250 0 193.99 0 125C0 56.01 56.01 0 125 0C193.99 0 250 56.01 250 125Z" id="d7FjweWzZ" fill="white" fill-opacity="1" filter="url(#shadow2524659)"></path></g></g><g><use xlink:href="#a7EYTHzNq" opacity="1" fill="#432f52" fill-opacity="1"></use><g><use xlink:href="#a7EYTHzNq" opacity="1" fill-opacity="0" stroke="#000000" stroke-width="1" stroke-opacity="0"></use></g></g><g><use xlink:href="#eBimBZG6L" opacity="1" fill="#432f52" fill-opacity="1"></use><g><use xlink:href="#eBimBZG6L" opacity="1" fill-opacity="0" stroke="#000000" stroke-width="1" stroke-opacity="0"></use></g></g></g></g></svg>