<?xml version="1.0" encoding="UTF-8" standalone="no"?>
<!DOCTYPE svg PUBLIC "-//W3C//DTD SVG 1.1//EN" "http://www.w3.org/Graphics/SVG/1.1/DTD/svg11.dtd">
<svg version="1.1" xmlns="http://www.w3.org/2000/svg" xmlns:xlink="http://www.w3.org/1999/xlink" preserveAspectRatio="xMidYMid meet" viewBox="0 0 250 250" width="250" height="250"><defs><path d="M250 125C250 193.99 193.99 250 125 250C56.01 250 0 193.99 0 125C0 56.01 56.01 0 125 0C193.99 0 250 56.01 250 125Z" id="eNtBAXy2y"></path><path d="M210 115C212.77 115 215 117.24 215 120C215 123 215 127 215 130C215 132.76 212.77 135 210 135C175 135 75 135 40 135C37.24 135 35 132.76 35 130C35 127 35 123 35 120C35 117.23 37.24 115 40 115C75 115 175 115 210 115Z" id="c2GSDgOQMk"></path></defs><g><g><g><use xlink:href="#eNtBAXy2y" opacity="1" fill="#fac536" fill-opacity="1"></use></g><g><use xlink:href="#c2GSDgOQMk" opacity="1" fill="#975914" fill-opacity="1"></use><g><use xlink:href="#c2GSDgOQMk" opacity="1" fill-opacity="0" stroke="#57aeb3" stroke-width="0" stroke-opacity="1"></use></g></g></g></g></svg>