<?xml version="1.0" encoding="UTF-8" standalone="no"?>
<!DOCTYPE svg PUBLIC "-//W3C//DTD SVG 1.1//EN" "http://www.w3.org/Graphics/SVG/1.1/DTD/svg11.dtd">
<svg version="1.1" xmlns="http://www.w3.org/2000/svg" xmlns:xlink="http://www.w3.org/1999/xlink" preserveAspectRatio="xMidYMid meet" viewBox="0 0 250 250" width="250" height="250"><defs><path d="M250 125C250 193.99 193.99 250 125 250C56.01 250 0 193.99 0 125C0 56.01 56.01 0 125 0C193.99 0 250 56.01 250 125Z" id="b1F47x7Zmw"></path><linearGradient id="gradientaCrOe7R9Q" gradientUnits="userSpaceOnUse" x1="0" y1="125" x2="246.65" y2="125"><stop style="stop-color: #ce00de;stop-opacity: 1" offset="0%"></stop><stop style="stop-color: #8f00fb;stop-opacity: 1" offset="100%"></stop></linearGradient><path d="M129.46 107.64C129.46 115.32 135.67 121.52 143.34 121.52C148.45 121.52 189.25 121.52 194.35 121.52C206.75 121.52 212.95 106.45 204.19 97.69C199.09 92.59 158.29 51.77 153.19 46.67C144.43 37.9 129.46 44.2 129.46 56.61C129.46 66.82 129.46 102.53 129.46 107.64Z" id="bONDalGGL"></path><path d="M120.98 142.8C120.98 135.12 114.77 128.91 107.09 128.92C101.99 128.92 61.19 128.92 56.09 128.92C43.69 128.93 37.49 144 46.25 152.76C51.35 157.86 92.16 198.67 97.26 203.78C106.02 212.54 120.99 206.23 120.99 193.82C120.99 183.62 120.98 147.9 120.98 142.8Z" id="a6zwZjwajI"></path></defs><g><g><g><use xlink:href="#b1F47x7Zmw" opacity="1" fill="url(#gradientaCrOe7R9Q)"></use><g><filter id="shadow2524659" x="-13" y="-13" width="276" height="277" filterUnits="userSpaceOnUse" primitiveUnits="userSpaceOnUse"><feFlood></feFlood><feComposite in2="SourceAlpha" operator="out"></feComposite><feGaussianBlur stdDeviation="1.41"></feGaussianBlur><feOffset dx="0" dy="1" result="afterOffset"></feOffset><feFlood flood-color="#9d03cd" flood-opacity="0.8"></feFlood><feComposite in2="afterOffset" operator="in"></feComposite><feMorphology operator="dilate" radius="3"></feMorphology><feComposite in2="SourceAlpha" operator="in"></feComposite></filter><path d="M250 125C250 193.99 193.99 250 125 250C56.01 250 0 193.99 0 125C0 56.01 56.01 0 125 0C193.99 0 250 56.01 250 125Z" id="d7FjweWzZ" fill="white" fill-opacity="1" filter="url(#shadow2524659)"></path></g></g><g><use xlink:href="#bONDalGGL" opacity="1" fill="#432f52" fill-opacity="1"></use><g><use xlink:href="#bONDalGGL" opacity="1" fill-opacity="0" stroke="#000000" stroke-width="1" stroke-opacity="0"></use></g></g><g><use xlink:href="#a6zwZjwajI" opacity="1" fill="#432f52" fill-opacity="1"></use><g><use xlink:href="#a6zwZjwajI" opacity="1" fill-opacity="0" stroke="#000000" stroke-width="1" stroke-opacity="0"></use></g></g></g></g></svg>