<svg xmlns="http://www.w3.org/2000/svg" width="16" height="16">
  <path fill="context-fill" fill-opacity="context-fill-opacity"
    d="M12 0H4a2 2 0 00-2 2v2a1 1 0 001 1 1 1 0 001-1V2.5a.5.5 0 01.5-.5h7a.5.5 0 01.5.5v10a.5.5 0 01-.5.5h-7a.5.5 0 01-.5-.5V11a1 1 0 00-1-1 1 1 0 00-1 1v3a2 2 0 002 2h8a2 2 0 002-2V2a2 2 0 00-2-2zM9 15H7v-1h2z" />
  <path fill="context-fill" fill-opacity="context-fill-opacity"
    d="M5.146 10.146a.5.5 0 10.707.707l3-3a.5.5 0 000-.708l-3-3a.5.5 0 00-.707.707L7.293 7H.5a.5.5 0 000 1h6.793z" />
</svg>
