<?xml version="1.0" encoding="UTF-8"?>
<svg xmlns="http://www.w3.org/2000/svg" width="64" height="64" viewBox="0 0 64 64">
  <defs>
    <linearGradient id="a" x1="64" y1="0" x2="0" y2="64" gradientUnits="userSpaceOnUse">
      <stop stop-color="#AB71FF"/>
      <stop offset="1" stop-color="#0250BB"/>
    </linearGradient>
  </defs>
  <path d="M 61.269531 57.730469 L 52.089844 48.550781 C 52.09375 48.546875 52.097656 48.542969 52.101562 48.535156 L 48.539062 44.976562 C 48.535156 44.980469 48.53125 44.984375 48.527344 44.992188 L 16.464844 12.925781 L 16.480469 12.914062 L 12.785156 9.21875 L 12.769531 9.226562 L 6.269531 2.730469 C 5.285156 1.796875 3.734375 1.816406 2.773438 2.777344 C 1.8125 3.738281 1.792969 5.289062 2.726562 6.273438 L 8.152344 11.695312 L 7.164062 12.226562 C 4.117188 13.875 2.476562 17.300781 3.105469 20.707031 L 5.550781 34.007812 C 6.433594 38.792969 8.023438 42.953125 10.28125 46.367188 C 14.992188 53.507812 21.46875 59.464844 28.515625 63.140625 C 30.699219 64.285156 33.304688 64.285156 35.488281 63.140625 C 40.398438 60.574219 44.96875 56.851562 48.894531 52.4375 L 57.726562 61.269531 C 58.195312 61.738281 58.832031 62.003906 59.496094 62.003906 C 60.160156 62.003906 60.796875 61.738281 61.265625 61.269531 C 61.734375 60.800781 62 60.164062 62 59.5 C 62 58.835938 61.738281 58.199219 61.269531 57.730469 Z M 33.171875 58.707031 L 30.828125 58.707031 C 24.515625 55.421875 18.695312 50.058594 14.449219 43.617188 C 12.5625 40.765625 11.222656 37.230469 10.464844 33.105469 L 8 19.710938 L 9.457031 16.671875 L 11.851562 15.390625 L 45.386719 48.929688 C 41.8125 52.984375 37.640625 56.378906 33.171875 58.707031 Z M 33.171875 58.707031" fill="url(#a)"/>
  <path d="M 30.636719 5.34375 L 33.363281 5.339844 L 54.527344 16.867188 L 55.996094 19.933594 L 53.539062 33.132812 C 53.078125 35.699219 52.296875 38.195312 51.210938 40.566406 L 54.9375 44.292969 C 56.636719 41.082031 57.824219 37.625 58.457031 34.046875 L 60.894531 20.933594 C 61.53125 17.511719 59.886719 14.074219 56.824219 12.425781 L 35.730469 0.9375 C 33.398438 -0.3125 30.589844 -0.308594 28.261719 0.949219 L 17.394531 6.757812 L 21.09375 10.453125 Z M 30.636719 5.34375" fill="url(#a)"/>
</svg>
